# xmcd
#
# Track frame offsets:
#	150
#	23296
#	44795
#	64248
#	83335
#	100684
#	122026
#	146180
#	168170
#	188786
#	216920
#	238217
#	261019
#	284391
#	309256
#	331516
#
# Disc length: 4743 seconds
#
# Revision: 6
# Processed by: cddbd v1.5.2PL0 Copyright (c) Steve Scherf et al.
# Submitted via: Jack! The Knife 20 Magnifico
#
DISCID=d9128510
DTITLE=Marco Masini - Greatest Hits
DYEAR=2013
DGENRE=Pop
TTITLE0=Vai
TTITLE1=Dentro di te fuori dal mondo
TTITLE2=Disperato
TTITLE3=Ci vorrebbe il mare
TTITLE4=Le ragazze serie
TTITLE5=Perché lo fai
TTITLE6=Cenerentola innamorata
TTITLE7=Fuori di qui
TTITLE8=Malinconoia
TTITLE9=Il niente
TTITLE10=Ti vorrei
TTITLE11=Vaffanculo
TTITLE12=T'innamorerai
TTITLE13=Paura d'amare
TTITLE14=La libertà
TTITLE15=Bella stronza
EXTD=Mr. Thinker!
EXTT0=
EXTT1=
EXTT2=
EXTT3=
EXTT4=
EXTT5=
EXTT6=
EXTT7=
EXTT8=
EXTT9=
EXTT10=
EXTT11=
EXTT12=
EXTT13=
EXTT14=
EXTT15=
PLAYORDER=
